<mxfile host="app.diagrams.net" modified="2023-03-24T12:53:54.619Z" agent="5.0 (Windows NT 10.0; Win64; x64) AppleWebKit/537.36 (KHTML, like Gecko) Chrome/105.0.0.0 Safari/537.36" etag="mrP5rhkJcl6ME8WBNwcJ" version="21.0.10" type="github">
  <diagram name="第 1 页" id="0XDI-VkfgNst53e6hnar">
    <mxGraphModel dx="1035" dy="545" grid="0" gridSize="10" guides="1" tooltips="1" connect="1" arrows="1" fold="1" page="1" pageScale="1" pageWidth="827" pageHeight="1169" math="0" shadow="0">
      <root>
        <mxCell id="0" />
        <mxCell id="1" parent="0" />
        <mxCell id="zBfdnBib8s4iw6136E-Z-30" value="矩形" style="rounded=0;whiteSpace=wrap;html=1;" vertex="1" parent="1">
          <mxGeometry x="234" y="470" width="120" height="60" as="geometry" />
        </mxCell>
        <mxCell id="zBfdnBib8s4iw6136E-Z-37" style="edgeStyle=orthogonalEdgeStyle;rounded=0;orthogonalLoop=1;jettySize=auto;html=1;entryX=0.5;entryY=0;entryDx=0;entryDy=0;" edge="1" parent="1" source="zBfdnBib8s4iw6136E-Z-31" target="zBfdnBib8s4iw6136E-Z-32">
          <mxGeometry relative="1" as="geometry" />
        </mxCell>
        <mxCell id="zBfdnBib8s4iw6136E-Z-31" value="圆形" style="ellipse;whiteSpace=wrap;html=1;aspect=fixed;" vertex="1" parent="1">
          <mxGeometry x="361" y="167" width="80" height="80" as="geometry" />
        </mxCell>
        <mxCell id="zBfdnBib8s4iw6136E-Z-35" style="edgeStyle=orthogonalEdgeStyle;rounded=0;orthogonalLoop=1;jettySize=auto;html=1;" edge="1" parent="1" source="zBfdnBib8s4iw6136E-Z-32" target="zBfdnBib8s4iw6136E-Z-30">
          <mxGeometry relative="1" as="geometry" />
        </mxCell>
        <mxCell id="zBfdnBib8s4iw6136E-Z-39" value="分支A" style="edgeLabel;html=1;align=center;verticalAlign=middle;resizable=0;points=[];" vertex="1" connectable="0" parent="zBfdnBib8s4iw6136E-Z-35">
          <mxGeometry x="0.209" y="2" relative="1" as="geometry">
            <mxPoint as="offset" />
          </mxGeometry>
        </mxCell>
        <mxCell id="zBfdnBib8s4iw6136E-Z-36" style="edgeStyle=orthogonalEdgeStyle;rounded=0;orthogonalLoop=1;jettySize=auto;html=1;entryX=0.5;entryY=0;entryDx=0;entryDy=0;" edge="1" parent="1" source="zBfdnBib8s4iw6136E-Z-32" target="zBfdnBib8s4iw6136E-Z-34">
          <mxGeometry relative="1" as="geometry" />
        </mxCell>
        <mxCell id="zBfdnBib8s4iw6136E-Z-38" value="分支B" style="edgeLabel;html=1;align=center;verticalAlign=middle;resizable=0;points=[];" vertex="1" connectable="0" parent="zBfdnBib8s4iw6136E-Z-36">
          <mxGeometry x="0.1561" y="3" relative="1" as="geometry">
            <mxPoint as="offset" />
          </mxGeometry>
        </mxCell>
        <mxCell id="zBfdnBib8s4iw6136E-Z-32" value="菱形" style="rhombus;whiteSpace=wrap;html=1;" vertex="1" parent="1">
          <mxGeometry x="361" y="320" width="80" height="80" as="geometry" />
        </mxCell>
        <mxCell id="zBfdnBib8s4iw6136E-Z-34" value="圆角矩形" style="rounded=1;whiteSpace=wrap;html=1;" vertex="1" parent="1">
          <mxGeometry x="444" y="470" width="120" height="60" as="geometry" />
        </mxCell>
      </root>
    </mxGraphModel>
  </diagram>
</mxfile>
